<svg xmlns="http://www.w3.org/2000/svg" xmlns:xlink="http://www.w3.org/1999/xlink" width="405" zoomAndPan="magnify" viewBox="0 0 303.75 51.749998" height="69" preserveAspectRatio="xMidYMid meet" version="1.0"><defs><g/></defs><g fill="#ffffff" fill-opacity="1"><g transform="translate(4.549319, 42.945014)"><g><path d="M 5.171875 -8.171875 C 5.421875 -7.648438 5.695312 -7.171875 6 -6.734375 C 6.3125 -6.296875 6.695312 -5.914062 7.15625 -5.59375 C 7.613281 -5.269531 8.160156 -5.019531 8.796875 -4.84375 C 9.429688 -4.664062 10.203125 -4.578125 11.109375 -4.578125 C 11.867188 -4.578125 12.59375 -4.65625 13.28125 -4.8125 C 13.96875 -4.976562 14.570312 -5.207031 15.09375 -5.5 C 15.625 -5.800781 16.046875 -6.148438 16.359375 -6.546875 C 16.671875 -6.953125 16.828125 -7.398438 16.828125 -7.890625 C 16.828125 -8.398438 16.785156 -8.828125 16.703125 -9.171875 C 16.628906 -9.523438 16.410156 -9.859375 16.046875 -10.171875 C 15.691406 -10.492188 15.144531 -10.816406 14.40625 -11.140625 C 13.664062 -11.460938 12.632812 -11.847656 11.3125 -12.296875 C 10.0625 -12.703125 8.960938 -13.128906 8.015625 -13.578125 C 7.066406 -14.023438 6.273438 -14.550781 5.640625 -15.15625 C 5.015625 -15.769531 4.535156 -16.488281 4.203125 -17.3125 C 3.878906 -18.144531 3.71875 -19.140625 3.71875 -20.296875 C 3.71875 -21.410156 3.96875 -22.503906 4.46875 -23.578125 C 4.976562 -24.660156 5.722656 -25.617188 6.703125 -26.453125 C 7.679688 -27.285156 8.890625 -27.957031 10.328125 -28.46875 C 11.773438 -28.976562 13.441406 -29.234375 15.328125 -29.234375 C 17.691406 -29.234375 19.691406 -28.804688 21.328125 -27.953125 C 22.960938 -27.109375 24.328125 -25.835938 25.421875 -24.140625 L 20.296875 -20.671875 C 20.023438 -21.210938 19.710938 -21.691406 19.359375 -22.109375 C 19.015625 -22.523438 18.613281 -22.878906 18.15625 -23.171875 C 17.695312 -23.460938 17.164062 -23.679688 16.5625 -23.828125 C 15.957031 -23.984375 15.265625 -24.0625 14.484375 -24.0625 C 13.804688 -24.0625 13.179688 -23.988281 12.609375 -23.84375 C 12.035156 -23.695312 11.535156 -23.484375 11.109375 -23.203125 C 10.691406 -22.929688 10.363281 -22.597656 10.125 -22.203125 C 9.894531 -21.816406 9.78125 -21.367188 9.78125 -20.859375 C 9.78125 -20.390625 9.875 -19.984375 10.0625 -19.640625 C 10.257812 -19.304688 10.5625 -19 10.96875 -18.71875 C 11.382812 -18.445312 11.90625 -18.1875 12.53125 -17.9375 C 13.164062 -17.6875 13.929688 -17.425781 14.828125 -17.15625 C 16.296875 -16.695312 17.539062 -16.191406 18.5625 -15.640625 C 19.59375 -15.097656 20.429688 -14.484375 21.078125 -13.796875 C 21.734375 -13.117188 22.203125 -12.351562 22.484375 -11.5 C 22.773438 -10.644531 22.921875 -9.679688 22.921875 -8.609375 C 22.921875 -7.242188 22.628906 -5.992188 22.046875 -4.859375 C 21.460938 -3.734375 20.632812 -2.765625 19.5625 -1.953125 C 18.488281 -1.148438 17.195312 -0.523438 15.6875 -0.078125 C 14.175781 0.367188 12.503906 0.59375 10.671875 0.59375 C 7.859375 0.59375 5.554688 0.144531 3.765625 -0.75 C 1.984375 -1.65625 0.726562 -2.984375 0 -4.734375 Z M 5.171875 -8.171875 "/></g></g></g><g fill="#ffffff" fill-opacity="1"><g transform="translate(29.457883, 42.945014)"><g><path d="M 12.296875 0.59375 C 10.378906 0.59375 8.753906 0.335938 7.421875 -0.171875 C 6.085938 -0.679688 5.003906 -1.390625 4.171875 -2.296875 C 3.347656 -3.203125 2.75 -4.273438 2.375 -5.515625 C 2.007812 -6.765625 1.828125 -8.117188 1.828125 -9.578125 C 1.828125 -10.347656 1.863281 -11.15625 1.9375 -12 C 2.007812 -12.851562 2.128906 -13.71875 2.296875 -14.59375 C 2.460938 -15.46875 2.675781 -16.351562 2.9375 -17.25 C 3.195312 -18.144531 3.515625 -19.023438 3.890625 -19.890625 C 4.472656 -21.222656 5.148438 -22.460938 5.921875 -23.609375 C 6.691406 -24.753906 7.597656 -25.742188 8.640625 -26.578125 C 9.691406 -27.410156 10.894531 -28.0625 12.25 -28.53125 C 13.601562 -29 15.140625 -29.234375 16.859375 -29.234375 C 18.484375 -29.234375 19.941406 -29.007812 21.234375 -28.5625 C 22.523438 -28.125 23.617188 -27.460938 24.515625 -26.578125 C 25.410156 -25.691406 26.097656 -24.582031 26.578125 -23.25 C 27.054688 -21.914062 27.296875 -20.351562 27.296875 -18.5625 C 27.296875 -17.625 27.179688 -16.46875 26.953125 -15.09375 C 26.734375 -13.71875 26.390625 -12.273438 25.921875 -10.765625 C 25.390625 -9.023438 24.71875 -7.453125 23.90625 -6.046875 C 23.101562 -4.648438 22.144531 -3.457031 21.03125 -2.46875 C 19.914062 -1.488281 18.632812 -0.734375 17.1875 -0.203125 C 15.738281 0.328125 14.109375 0.59375 12.296875 0.59375 Z M 7.765625 -10.03125 C 7.765625 -9.050781 7.851562 -8.21875 8.03125 -7.53125 C 8.21875 -6.84375 8.503906 -6.28125 8.890625 -5.84375 C 9.273438 -5.40625 9.769531 -5.082031 10.375 -4.875 C 10.976562 -4.675781 11.6875 -4.578125 12.5 -4.578125 C 13.46875 -4.578125 14.34375 -4.738281 15.125 -5.0625 C 15.90625 -5.394531 16.609375 -5.867188 17.234375 -6.484375 C 17.867188 -7.109375 18.425781 -7.863281 18.90625 -8.75 C 19.394531 -9.632812 19.816406 -10.628906 20.171875 -11.734375 C 20.535156 -12.847656 20.816406 -13.972656 21.015625 -15.109375 C 21.210938 -16.253906 21.3125 -17.28125 21.3125 -18.1875 C 21.3125 -20.257812 20.925781 -21.753906 20.15625 -22.671875 C 19.394531 -23.597656 18.160156 -24.0625 16.453125 -24.0625 C 15.597656 -24.0625 14.820312 -23.929688 14.125 -23.671875 C 13.425781 -23.421875 12.789062 -23.046875 12.21875 -22.546875 C 11.644531 -22.054688 11.125 -21.453125 10.65625 -20.734375 C 10.1875 -20.015625 9.757812 -19.191406 9.375 -18.265625 C 9.09375 -17.609375 8.847656 -16.921875 8.640625 -16.203125 C 8.441406 -15.492188 8.273438 -14.785156 8.140625 -14.078125 C 8.015625 -13.367188 7.921875 -12.671875 7.859375 -11.984375 C 7.796875 -11.304688 7.765625 -10.65625 7.765625 -10.03125 Z M 7.765625 -10.03125 "/></g></g></g><g fill="#ffffff" fill-opacity="1"><g transform="translate(57.117975, 42.945014)"><g><path d="M 26.234375 -11.40625 C 25.753906 -9.113281 25.125 -7.195312 24.34375 -5.65625 C 23.570312 -4.125 22.628906 -2.890625 21.515625 -1.953125 C 20.410156 -1.023438 19.125 -0.363281 17.65625 0.03125 C 16.1875 0.4375 14.519531 0.640625 12.65625 0.640625 C 9.445312 0.640625 7.003906 -0.046875 5.328125 -1.421875 C 3.660156 -2.804688 2.828125 -4.972656 2.828125 -7.921875 C 2.828125 -8.429688 2.863281 -9.078125 2.9375 -9.859375 C 3.019531 -10.640625 3.171875 -11.503906 3.390625 -12.453125 L 6.828125 -28.640625 L 12.53125 -28.640625 L 9.109375 -12.375 C 8.941406 -11.625 8.820312 -10.882812 8.75 -10.15625 C 8.6875 -9.425781 8.65625 -8.789062 8.65625 -8.25 C 8.65625 -7.550781 8.753906 -6.960938 8.953125 -6.484375 C 9.148438 -6.003906 9.4375 -5.617188 9.8125 -5.328125 C 10.195312 -5.046875 10.671875 -4.84375 11.234375 -4.71875 C 11.796875 -4.59375 12.445312 -4.53125 13.1875 -4.53125 C 14.144531 -4.53125 15.015625 -4.640625 15.796875 -4.859375 C 16.578125 -5.078125 17.273438 -5.476562 17.890625 -6.0625 C 18.503906 -6.644531 19.035156 -7.4375 19.484375 -8.4375 C 19.941406 -9.4375 20.335938 -10.722656 20.671875 -12.296875 L 24.140625 -28.640625 L 29.875 -28.640625 Z M 26.234375 -11.40625 "/></g></g></g><g fill="#ffffff" fill-opacity="1"><g transform="translate(86.267615, 42.945014)"><g><path d="M 16.734375 0 L 10.671875 -20.46875 L 6.359375 0 L 0.765625 0 L 6.828125 -28.640625 L 13.90625 -28.640625 L 19.609375 -9.328125 L 23.734375 -28.640625 L 29.359375 -28.640625 L 23.296875 0 Z M 16.734375 0 "/></g></g></g><g fill="#ffffff" fill-opacity="1"><g transform="translate(114.858675, 42.945014)"><g><path d="M 26.234375 -19.078125 C 26.234375 -18.316406 26.191406 -17.492188 26.109375 -16.609375 C 26.023438 -15.734375 25.894531 -14.828125 25.71875 -13.890625 C 25.550781 -12.953125 25.328125 -12.003906 25.046875 -11.046875 C 24.773438 -10.097656 24.441406 -9.175781 24.046875 -8.28125 C 23.660156 -7.382812 23.203125 -6.535156 22.671875 -5.734375 C 22.148438 -4.929688 21.554688 -4.21875 20.890625 -3.59375 C 20.179688 -2.9375 19.390625 -2.375 18.515625 -1.90625 C 17.648438 -1.445312 16.71875 -1.078125 15.71875 -0.796875 C 14.71875 -0.515625 13.65625 -0.3125 12.53125 -0.1875 C 11.414062 -0.0625 10.257812 0 9.0625 0 L 0.515625 0 L 6.5625 -28.640625 L 14.71875 -28.640625 C 16.613281 -28.640625 18.28125 -28.472656 19.71875 -28.140625 C 21.164062 -27.816406 22.367188 -27.28125 23.328125 -26.53125 C 24.285156 -25.789062 25.007812 -24.8125 25.5 -23.59375 C 25.988281 -22.375 26.234375 -20.867188 26.234375 -19.078125 Z M 9.53125 -5.34375 C 10.394531 -5.34375 11.179688 -5.367188 11.890625 -5.421875 C 12.609375 -5.472656 13.265625 -5.570312 13.859375 -5.71875 C 14.460938 -5.863281 15.003906 -6.054688 15.484375 -6.296875 C 15.972656 -6.535156 16.421875 -6.847656 16.828125 -7.234375 C 17.359375 -7.773438 17.84375 -8.5 18.28125 -9.40625 C 18.71875 -10.320312 19.082031 -11.304688 19.375 -12.359375 C 19.675781 -13.421875 19.90625 -14.492188 20.0625 -15.578125 C 20.21875 -16.671875 20.296875 -17.664062 20.296875 -18.5625 C 20.296875 -19.488281 20.171875 -20.253906 19.921875 -20.859375 C 19.671875 -21.460938 19.289062 -21.941406 18.78125 -22.296875 C 18.269531 -22.660156 17.628906 -22.914062 16.859375 -23.0625 C 16.085938 -23.21875 15.1875 -23.296875 14.15625 -23.296875 L 11.15625 -23.296875 L 7.328125 -5.34375 Z M 9.53125 -5.34375 "/></g></g></g><g fill="#ffffff" fill-opacity="1"><g transform="translate(141.46367, 42.945014)"><g><path d="M 5.171875 -8.171875 C 5.421875 -7.648438 5.695312 -7.171875 6 -6.734375 C 6.3125 -6.296875 6.695312 -5.914062 7.15625 -5.59375 C 7.613281 -5.269531 8.160156 -5.019531 8.796875 -4.84375 C 9.429688 -4.664062 10.203125 -4.578125 11.109375 -4.578125 C 11.867188 -4.578125 12.59375 -4.65625 13.28125 -4.8125 C 13.96875 -4.976562 14.570312 -5.207031 15.09375 -5.5 C 15.625 -5.800781 16.046875 -6.148438 16.359375 -6.546875 C 16.671875 -6.953125 16.828125 -7.398438 16.828125 -7.890625 C 16.828125 -8.398438 16.785156 -8.828125 16.703125 -9.171875 C 16.628906 -9.523438 16.410156 -9.859375 16.046875 -10.171875 C 15.691406 -10.492188 15.144531 -10.816406 14.40625 -11.140625 C 13.664062 -11.460938 12.632812 -11.847656 11.3125 -12.296875 C 10.0625 -12.703125 8.960938 -13.128906 8.015625 -13.578125 C 7.066406 -14.023438 6.273438 -14.550781 5.640625 -15.15625 C 5.015625 -15.769531 4.535156 -16.488281 4.203125 -17.3125 C 3.878906 -18.144531 3.71875 -19.140625 3.71875 -20.296875 C 3.71875 -21.410156 3.96875 -22.503906 4.46875 -23.578125 C 4.976562 -24.660156 5.722656 -25.617188 6.703125 -26.453125 C 7.679688 -27.285156 8.890625 -27.957031 10.328125 -28.46875 C 11.773438 -28.976562 13.441406 -29.234375 15.328125 -29.234375 C 17.691406 -29.234375 19.691406 -28.804688 21.328125 -27.953125 C 22.960938 -27.109375 24.328125 -25.835938 25.421875 -24.140625 L 20.296875 -20.671875 C 20.023438 -21.210938 19.710938 -21.691406 19.359375 -22.109375 C 19.015625 -22.523438 18.613281 -22.878906 18.15625 -23.171875 C 17.695312 -23.460938 17.164062 -23.679688 16.5625 -23.828125 C 15.957031 -23.984375 15.265625 -24.0625 14.484375 -24.0625 C 13.804688 -24.0625 13.179688 -23.988281 12.609375 -23.84375 C 12.035156 -23.695312 11.535156 -23.484375 11.109375 -23.203125 C 10.691406 -22.929688 10.363281 -22.597656 10.125 -22.203125 C 9.894531 -21.816406 9.78125 -21.367188 9.78125 -20.859375 C 9.78125 -20.390625 9.875 -19.984375 10.0625 -19.640625 C 10.257812 -19.304688 10.5625 -19 10.96875 -18.71875 C 11.382812 -18.445312 11.90625 -18.1875 12.53125 -17.9375 C 13.164062 -17.6875 13.929688 -17.425781 14.828125 -17.15625 C 16.296875 -16.695312 17.539062 -16.191406 18.5625 -15.640625 C 19.59375 -15.097656 20.429688 -14.484375 21.078125 -13.796875 C 21.734375 -13.117188 22.203125 -12.351562 22.484375 -11.5 C 22.773438 -10.644531 22.921875 -9.679688 22.921875 -8.609375 C 22.921875 -7.242188 22.628906 -5.992188 22.046875 -4.859375 C 21.460938 -3.734375 20.632812 -2.765625 19.5625 -1.953125 C 18.488281 -1.148438 17.195312 -0.523438 15.6875 -0.078125 C 14.175781 0.367188 12.503906 0.59375 10.671875 0.59375 C 7.859375 0.59375 5.554688 0.144531 3.765625 -0.75 C 1.984375 -1.65625 0.726562 -2.984375 0 -4.734375 Z M 5.171875 -8.171875 "/></g></g></g><g fill="#ffffff" fill-opacity="1"><g transform="translate(166.372234, 42.945014)"><g><path d="M 25.640625 -21.4375 C 25.640625 -20.539062 25.566406 -19.601562 25.421875 -18.625 C 25.273438 -17.65625 25.023438 -16.703125 24.671875 -15.765625 C 24.316406 -14.835938 23.847656 -13.957031 23.265625 -13.125 C 22.679688 -12.289062 21.957031 -11.554688 21.09375 -10.921875 C 20.226562 -10.285156 19.207031 -9.78125 18.03125 -9.40625 C 16.851562 -9.039062 15.492188 -8.859375 13.953125 -8.859375 L 8.34375 -8.859375 L 6.46875 0 L 0.765625 0 L 6.828125 -28.640625 L 17.34375 -28.640625 C 18.675781 -28.640625 19.851562 -28.507812 20.875 -28.25 C 21.90625 -28 22.773438 -27.585938 23.484375 -27.015625 C 24.191406 -26.441406 24.726562 -25.695312 25.09375 -24.78125 C 25.457031 -23.863281 25.640625 -22.75 25.640625 -21.4375 Z M 13.421875 -13.953125 C 14.691406 -13.953125 15.726562 -14.125 16.53125 -14.46875 C 17.332031 -14.820312 17.957031 -15.300781 18.40625 -15.90625 C 18.851562 -16.519531 19.160156 -17.234375 19.328125 -18.046875 C 19.492188 -18.859375 19.578125 -19.734375 19.578125 -20.671875 C 19.578125 -21.679688 19.289062 -22.414062 18.71875 -22.875 C 18.144531 -23.332031 17.1875 -23.5625 15.84375 -23.5625 L 11.484375 -23.5625 L 9.453125 -13.953125 Z M 13.421875 -13.953125 "/></g></g></g><g fill="#ffffff" fill-opacity="1"><g transform="translate(191.487679, 42.945014)"><g><path d="M 17.546875 0 L 20.125 -12.171875 L 9.0625 -12.171875 L 6.46875 0 L 0.765625 0 L 6.828125 -28.640625 L 12.53125 -28.640625 L 10.1875 -17.5 L 21.234375 -17.5 L 23.609375 -28.640625 L 29.3125 -28.640625 L 23.25 0 Z M 17.546875 0 "/></g></g></g><g fill="#ffffff" fill-opacity="1"><g transform="translate(220.037363, 42.945014)"><g><path d="M 0.765625 0 L 6.828125 -28.640625 L 25.03125 -28.640625 L 23.9375 -23.484375 L 11.4375 -23.484375 L 10.1875 -17.375 L 20.71875 -17.375 L 19.609375 -12.203125 L 9.0625 -12.203125 L 7.59375 -5.34375 L 20.09375 -5.34375 L 19 0 Z M 0.765625 0 "/></g></g></g><g fill="#ffffff" fill-opacity="1"><g transform="translate(243.332249, 42.945014)"><g><path d="M 16.703125 0 L 12.078125 -10.84375 L 8.765625 -10.84375 L 6.46875 0 L 0.765625 0 L 6.828125 -28.640625 L 16.828125 -28.640625 C 18.441406 -28.640625 19.828125 -28.519531 20.984375 -28.28125 C 22.140625 -28.050781 23.085938 -27.65625 23.828125 -27.09375 C 24.566406 -26.53125 25.109375 -25.796875 25.453125 -24.890625 C 25.796875 -23.984375 25.96875 -22.859375 25.96875 -21.515625 C 25.96875 -20.898438 25.894531 -20.242188 25.75 -19.546875 C 25.613281 -18.859375 25.410156 -18.171875 25.140625 -17.484375 C 24.878906 -16.804688 24.546875 -16.144531 24.140625 -15.5 C 23.742188 -14.863281 23.285156 -14.289062 22.765625 -13.78125 C 22.066406 -13.113281 21.296875 -12.582031 20.453125 -12.1875 C 19.617188 -11.800781 18.785156 -11.523438 17.953125 -11.359375 L 23.09375 0 Z M 14.03125 -15.9375 C 15.175781 -15.9375 16.101562 -16.03125 16.8125 -16.21875 C 17.519531 -16.414062 18.085938 -16.726562 18.515625 -17.15625 C 18.753906 -17.382812 18.957031 -17.65625 19.125 -17.96875 C 19.300781 -18.28125 19.445312 -18.601562 19.5625 -18.9375 C 19.675781 -19.28125 19.765625 -19.617188 19.828125 -19.953125 C 19.890625 -20.296875 19.921875 -20.609375 19.921875 -20.890625 C 19.921875 -21.390625 19.859375 -21.804688 19.734375 -22.140625 C 19.609375 -22.484375 19.40625 -22.757812 19.125 -22.96875 C 18.84375 -23.1875 18.46875 -23.335938 18 -23.421875 C 17.539062 -23.515625 16.972656 -23.5625 16.296875 -23.5625 L 11.484375 -23.5625 L 9.828125 -15.9375 Z M 14.03125 -15.9375 "/></g></g></g><g fill="#ffffff" fill-opacity="1"><g transform="translate(269.337275, 42.945014)"><g><path d="M 0.765625 0 L 6.828125 -28.640625 L 25.03125 -28.640625 L 23.9375 -23.484375 L 11.4375 -23.484375 L 10.1875 -17.375 L 20.71875 -17.375 L 19.609375 -12.203125 L 9.0625 -12.203125 L 7.59375 -5.34375 L 20.09375 -5.34375 L 19 0 Z M 0.765625 0 "/></g></g></g></svg>