<svg xmlns="http://www.w3.org/2000/svg" xmlns:xlink="http://www.w3.org/1999/xlink" width="500" zoomAndPan="magnify" viewBox="0 0 375 374.999991" height="500" preserveAspectRatio="xMidYMid meet" version="1.0"><defs><g/></defs><g fill="#ffffff" fill-opacity="1"><g transform="translate(34.066709, 204.749987)"><g><path d="M 5.390625 -8.515625 C 5.648438 -7.960938 5.941406 -7.460938 6.265625 -7.015625 C 6.585938 -6.566406 6.984375 -6.171875 7.453125 -5.828125 C 7.929688 -5.492188 8.5 -5.234375 9.15625 -5.046875 C 9.820312 -4.859375 10.628906 -4.765625 11.578125 -4.765625 C 12.367188 -4.765625 13.125 -4.847656 13.84375 -5.015625 C 14.5625 -5.191406 15.191406 -5.429688 15.734375 -5.734375 C 16.273438 -6.046875 16.707031 -6.410156 17.03125 -6.828125 C 17.351562 -7.242188 17.515625 -7.707031 17.515625 -8.21875 C 17.515625 -8.75 17.472656 -9.195312 17.390625 -9.5625 C 17.316406 -9.925781 17.09375 -10.269531 16.71875 -10.59375 C 16.351562 -10.925781 15.785156 -11.257812 15.015625 -11.59375 C 14.242188 -11.9375 13.171875 -12.335938 11.796875 -12.796875 C 10.484375 -13.234375 9.332031 -13.679688 8.34375 -14.140625 C 7.363281 -14.609375 6.539062 -15.160156 5.875 -15.796875 C 5.21875 -16.429688 4.71875 -17.175781 4.375 -18.03125 C 4.039062 -18.894531 3.875 -19.929688 3.875 -21.140625 C 3.875 -22.304688 4.132812 -23.445312 4.65625 -24.5625 C 5.1875 -25.6875 5.960938 -26.679688 6.984375 -27.546875 C 8.003906 -28.421875 9.265625 -29.125 10.765625 -29.65625 C 12.265625 -30.1875 14 -30.453125 15.96875 -30.453125 C 18.425781 -30.453125 20.503906 -30.007812 22.203125 -29.125 C 23.910156 -28.238281 25.335938 -26.914062 26.484375 -25.15625 L 21.140625 -21.53125 C 20.859375 -22.09375 20.535156 -22.59375 20.171875 -23.03125 C 19.816406 -23.46875 19.394531 -23.835938 18.90625 -24.140625 C 18.425781 -24.441406 17.875 -24.671875 17.25 -24.828125 C 16.625 -24.984375 15.90625 -25.0625 15.09375 -25.0625 C 14.382812 -25.0625 13.726562 -24.984375 13.125 -24.828125 C 12.53125 -24.679688 12.015625 -24.460938 11.578125 -24.171875 C 11.140625 -23.890625 10.796875 -23.539062 10.546875 -23.125 C 10.304688 -22.71875 10.1875 -22.25 10.1875 -21.71875 C 10.1875 -21.238281 10.285156 -20.820312 10.484375 -20.46875 C 10.691406 -20.113281 11.003906 -19.789062 11.421875 -19.5 C 11.847656 -19.21875 12.390625 -18.945312 13.046875 -18.6875 C 13.710938 -18.425781 14.515625 -18.15625 15.453125 -17.875 C 16.972656 -17.394531 18.269531 -16.867188 19.34375 -16.296875 C 20.414062 -15.734375 21.285156 -15.09375 21.953125 -14.375 C 22.628906 -13.664062 23.117188 -12.863281 23.421875 -11.96875 C 23.722656 -11.082031 23.875 -10.082031 23.875 -8.96875 C 23.875 -7.539062 23.566406 -6.238281 22.953125 -5.0625 C 22.347656 -3.882812 21.488281 -2.875 20.375 -2.03125 C 19.257812 -1.195312 17.914062 -0.546875 16.34375 -0.078125 C 14.769531 0.390625 13.03125 0.625 11.125 0.625 C 8.1875 0.625 5.785156 0.15625 3.921875 -0.78125 C 2.066406 -1.726562 0.757812 -3.113281 0 -4.9375 Z M 5.390625 -8.515625 "/></g></g></g><g fill="#ffffff" fill-opacity="1"><g transform="translate(60.011974, 204.749987)"><g><path d="M 12.796875 0.625 C 10.804688 0.625 9.113281 0.359375 7.71875 -0.171875 C 6.332031 -0.703125 5.207031 -1.441406 4.34375 -2.390625 C 3.488281 -3.335938 2.863281 -4.457031 2.46875 -5.75 C 2.082031 -7.039062 1.890625 -8.453125 1.890625 -9.984375 C 1.890625 -10.785156 1.929688 -11.628906 2.015625 -12.515625 C 2.097656 -13.398438 2.222656 -14.296875 2.390625 -15.203125 C 2.566406 -16.117188 2.789062 -17.039062 3.0625 -17.96875 C 3.332031 -18.90625 3.660156 -19.820312 4.046875 -20.71875 C 4.648438 -22.101562 5.351562 -23.390625 6.15625 -24.578125 C 6.96875 -25.773438 7.914062 -26.804688 9 -27.671875 C 10.09375 -28.546875 11.34375 -29.226562 12.75 -29.71875 C 14.164062 -30.207031 15.769531 -30.453125 17.5625 -30.453125 C 19.257812 -30.453125 20.78125 -30.222656 22.125 -29.765625 C 23.46875 -29.304688 24.601562 -28.613281 25.53125 -27.6875 C 26.46875 -26.757812 27.179688 -25.601562 27.671875 -24.21875 C 28.171875 -22.832031 28.421875 -21.203125 28.421875 -19.328125 C 28.421875 -18.359375 28.304688 -17.15625 28.078125 -15.71875 C 27.847656 -14.289062 27.488281 -12.785156 27 -11.203125 C 26.445312 -9.390625 25.75 -7.753906 24.90625 -6.296875 C 24.0625 -4.835938 23.0625 -3.59375 21.90625 -2.5625 C 20.75 -1.539062 19.414062 -0.753906 17.90625 -0.203125 C 16.394531 0.347656 14.691406 0.625 12.796875 0.625 Z M 8.078125 -10.453125 C 8.078125 -9.429688 8.175781 -8.5625 8.375 -7.84375 C 8.570312 -7.125 8.867188 -6.535156 9.265625 -6.078125 C 9.671875 -5.628906 10.1875 -5.296875 10.8125 -5.078125 C 11.4375 -4.867188 12.171875 -4.765625 13.015625 -4.765625 C 14.023438 -4.765625 14.9375 -4.9375 15.75 -5.28125 C 16.570312 -5.625 17.304688 -6.117188 17.953125 -6.765625 C 18.609375 -7.410156 19.1875 -8.191406 19.6875 -9.109375 C 20.195312 -10.035156 20.640625 -11.070312 21.015625 -12.21875 C 21.390625 -13.382812 21.679688 -14.554688 21.890625 -15.734375 C 22.097656 -16.921875 22.203125 -17.988281 22.203125 -18.9375 C 22.203125 -21.09375 21.800781 -22.648438 21 -23.609375 C 20.207031 -24.578125 18.921875 -25.0625 17.140625 -25.0625 C 16.242188 -25.0625 15.429688 -24.925781 14.703125 -24.65625 C 13.984375 -24.394531 13.320312 -24.003906 12.71875 -23.484375 C 12.125 -22.972656 11.582031 -22.34375 11.09375 -21.59375 C 10.601562 -20.84375 10.160156 -19.988281 9.765625 -19.03125 C 9.472656 -18.34375 9.21875 -17.628906 9 -16.890625 C 8.789062 -16.148438 8.617188 -15.410156 8.484375 -14.671875 C 8.347656 -13.929688 8.242188 -13.203125 8.171875 -12.484375 C 8.109375 -11.773438 8.078125 -11.097656 8.078125 -10.453125 Z M 8.078125 -10.453125 "/></g></g></g><g fill="#ffffff" fill-opacity="1"><g transform="translate(88.823286, 204.749987)"><g><path d="M 27.328125 -11.875 C 26.828125 -9.488281 26.171875 -7.492188 25.359375 -5.890625 C 24.554688 -4.285156 23.578125 -3 22.421875 -2.03125 C 21.265625 -1.0625 19.921875 -0.367188 18.390625 0.046875 C 16.859375 0.460938 15.125 0.671875 13.1875 0.671875 C 9.84375 0.671875 7.300781 -0.046875 5.5625 -1.484375 C 3.820312 -2.921875 2.953125 -5.175781 2.953125 -8.25 C 2.953125 -8.78125 2.988281 -9.453125 3.0625 -10.265625 C 3.144531 -11.078125 3.300781 -11.976562 3.53125 -12.96875 L 7.109375 -29.828125 L 13.0625 -29.828125 L 9.484375 -12.890625 C 9.304688 -12.109375 9.179688 -11.335938 9.109375 -10.578125 C 9.046875 -9.816406 9.015625 -9.15625 9.015625 -8.59375 C 9.015625 -7.863281 9.117188 -7.25 9.328125 -6.75 C 9.535156 -6.257812 9.832031 -5.863281 10.21875 -5.5625 C 10.613281 -5.257812 11.109375 -5.039062 11.703125 -4.90625 C 12.296875 -4.78125 12.972656 -4.71875 13.734375 -4.71875 C 14.734375 -4.71875 15.640625 -4.832031 16.453125 -5.0625 C 17.265625 -5.289062 17.988281 -5.707031 18.625 -6.3125 C 19.269531 -6.914062 19.828125 -7.738281 20.296875 -8.78125 C 20.773438 -9.820312 21.1875 -11.160156 21.53125 -12.796875 L 25.15625 -29.828125 L 31.125 -29.828125 Z M 27.328125 -11.875 "/></g></g></g><g fill="#ffffff" fill-opacity="1"><g transform="translate(119.186141, 204.749987)"><g><path d="M 17.4375 0 L 11.125 -21.3125 L 6.609375 0 L 0.796875 0 L 7.109375 -29.828125 L 14.484375 -29.828125 L 20.4375 -9.71875 L 24.71875 -29.828125 L 30.578125 -29.828125 L 24.265625 0 Z M 17.4375 0 "/></g></g></g><g fill="#ffffff" fill-opacity="1"><g transform="translate(148.967168, 204.749987)"><g><path d="M 27.328125 -19.875 C 27.328125 -19.082031 27.285156 -18.222656 27.203125 -17.296875 C 27.117188 -16.378906 26.984375 -15.429688 26.796875 -14.453125 C 26.617188 -13.484375 26.382812 -12.5 26.09375 -11.5 C 25.8125 -10.507812 25.460938 -9.546875 25.046875 -8.609375 C 24.640625 -7.679688 24.160156 -6.800781 23.609375 -5.96875 C 23.066406 -5.132812 22.453125 -4.394531 21.765625 -3.75 C 21.015625 -3.0625 20.1875 -2.472656 19.28125 -1.984375 C 18.382812 -1.503906 17.414062 -1.117188 16.375 -0.828125 C 15.332031 -0.535156 14.226562 -0.320312 13.0625 -0.1875 C 11.894531 -0.0625 10.6875 0 9.4375 0 L 0.53125 0 L 6.828125 -29.828125 L 15.328125 -29.828125 C 17.304688 -29.828125 19.046875 -29.65625 20.546875 -29.3125 C 22.046875 -28.976562 23.296875 -28.421875 24.296875 -27.640625 C 25.296875 -26.867188 26.050781 -25.847656 26.5625 -24.578125 C 27.070312 -23.304688 27.328125 -21.738281 27.328125 -19.875 Z M 9.9375 -5.5625 C 10.820312 -5.5625 11.640625 -5.585938 12.390625 -5.640625 C 13.140625 -5.703125 13.828125 -5.804688 14.453125 -5.953125 C 15.078125 -6.109375 15.640625 -6.3125 16.140625 -6.5625 C 16.640625 -6.8125 17.097656 -7.140625 17.515625 -7.546875 C 18.078125 -8.109375 18.582031 -8.863281 19.03125 -9.8125 C 19.488281 -10.757812 19.867188 -11.78125 20.171875 -12.875 C 20.484375 -13.976562 20.722656 -15.097656 20.890625 -16.234375 C 21.054688 -17.367188 21.140625 -18.398438 21.140625 -19.328125 C 21.140625 -20.296875 21.007812 -21.09375 20.75 -21.71875 C 20.5 -22.351562 20.101562 -22.859375 19.5625 -23.234375 C 19.03125 -23.609375 18.363281 -23.875 17.5625 -24.03125 C 16.757812 -24.1875 15.820312 -24.265625 14.75 -24.265625 L 11.609375 -24.265625 L 7.625 -5.5625 Z M 9.9375 -5.5625 "/></g></g></g><g fill="#ffffff" fill-opacity="1"><g transform="translate(176.67947, 204.749987)"><g><path d="M 5.390625 -8.515625 C 5.648438 -7.960938 5.941406 -7.460938 6.265625 -7.015625 C 6.585938 -6.566406 6.984375 -6.171875 7.453125 -5.828125 C 7.929688 -5.492188 8.5 -5.234375 9.15625 -5.046875 C 9.820312 -4.859375 10.628906 -4.765625 11.578125 -4.765625 C 12.367188 -4.765625 13.125 -4.847656 13.84375 -5.015625 C 14.5625 -5.191406 15.191406 -5.429688 15.734375 -5.734375 C 16.273438 -6.046875 16.707031 -6.410156 17.03125 -6.828125 C 17.351562 -7.242188 17.515625 -7.707031 17.515625 -8.21875 C 17.515625 -8.75 17.472656 -9.195312 17.390625 -9.5625 C 17.316406 -9.925781 17.09375 -10.269531 16.71875 -10.59375 C 16.351562 -10.925781 15.785156 -11.257812 15.015625 -11.59375 C 14.242188 -11.9375 13.171875 -12.335938 11.796875 -12.796875 C 10.484375 -13.234375 9.332031 -13.679688 8.34375 -14.140625 C 7.363281 -14.609375 6.539062 -15.160156 5.875 -15.796875 C 5.21875 -16.429688 4.71875 -17.175781 4.375 -18.03125 C 4.039062 -18.894531 3.875 -19.929688 3.875 -21.140625 C 3.875 -22.304688 4.132812 -23.445312 4.65625 -24.5625 C 5.1875 -25.6875 5.960938 -26.679688 6.984375 -27.546875 C 8.003906 -28.421875 9.265625 -29.125 10.765625 -29.65625 C 12.265625 -30.1875 14 -30.453125 15.96875 -30.453125 C 18.425781 -30.453125 20.503906 -30.007812 22.203125 -29.125 C 23.910156 -28.238281 25.335938 -26.914062 26.484375 -25.15625 L 21.140625 -21.53125 C 20.859375 -22.09375 20.535156 -22.59375 20.171875 -23.03125 C 19.816406 -23.46875 19.394531 -23.835938 18.90625 -24.140625 C 18.425781 -24.441406 17.875 -24.671875 17.25 -24.828125 C 16.625 -24.984375 15.90625 -25.0625 15.09375 -25.0625 C 14.382812 -25.0625 13.726562 -24.984375 13.125 -24.828125 C 12.53125 -24.679688 12.015625 -24.460938 11.578125 -24.171875 C 11.140625 -23.890625 10.796875 -23.539062 10.546875 -23.125 C 10.304688 -22.71875 10.1875 -22.25 10.1875 -21.71875 C 10.1875 -21.238281 10.285156 -20.820312 10.484375 -20.46875 C 10.691406 -20.113281 11.003906 -19.789062 11.421875 -19.5 C 11.847656 -19.21875 12.390625 -18.945312 13.046875 -18.6875 C 13.710938 -18.425781 14.515625 -18.15625 15.453125 -17.875 C 16.972656 -17.394531 18.269531 -16.867188 19.34375 -16.296875 C 20.414062 -15.734375 21.285156 -15.09375 21.953125 -14.375 C 22.628906 -13.664062 23.117188 -12.863281 23.421875 -11.96875 C 23.722656 -11.082031 23.875 -10.082031 23.875 -8.96875 C 23.875 -7.539062 23.566406 -6.238281 22.953125 -5.0625 C 22.347656 -3.882812 21.488281 -2.875 20.375 -2.03125 C 19.257812 -1.195312 17.914062 -0.546875 16.34375 -0.078125 C 14.769531 0.390625 13.03125 0.625 11.125 0.625 C 8.1875 0.625 5.785156 0.15625 3.921875 -0.78125 C 2.066406 -1.726562 0.757812 -3.113281 0 -4.9375 Z M 5.390625 -8.515625 "/></g></g></g><g fill="#ffffff" fill-opacity="1"><g transform="translate(202.624735, 204.749987)"><g><path d="M 26.703125 -22.328125 C 26.703125 -21.390625 26.625 -20.414062 26.46875 -19.40625 C 26.320312 -18.394531 26.066406 -17.40625 25.703125 -16.4375 C 25.335938 -15.46875 24.847656 -14.546875 24.234375 -13.671875 C 23.628906 -12.804688 22.875 -12.039062 21.96875 -11.375 C 21.070312 -10.71875 20.007812 -10.191406 18.78125 -9.796875 C 17.550781 -9.410156 16.132812 -9.21875 14.53125 -9.21875 L 8.6875 -9.21875 L 6.75 0 L 0.796875 0 L 7.109375 -29.828125 L 18.0625 -29.828125 C 19.457031 -29.828125 20.6875 -29.691406 21.75 -29.421875 C 22.820312 -29.160156 23.722656 -28.734375 24.453125 -28.140625 C 25.191406 -27.546875 25.75 -26.769531 26.125 -25.8125 C 26.507812 -24.851562 26.703125 -23.691406 26.703125 -22.328125 Z M 13.984375 -14.53125 C 15.304688 -14.53125 16.382812 -14.710938 17.21875 -15.078125 C 18.050781 -15.441406 18.703125 -15.9375 19.171875 -16.5625 C 19.640625 -17.195312 19.957031 -17.9375 20.125 -18.78125 C 20.300781 -19.632812 20.390625 -20.550781 20.390625 -21.53125 C 20.390625 -22.582031 20.085938 -23.347656 19.484375 -23.828125 C 18.890625 -24.304688 17.898438 -24.546875 16.515625 -24.546875 L 11.96875 -24.546875 L 9.84375 -14.53125 Z M 13.984375 -14.53125 "/></g></g></g><g fill="#ffffff" fill-opacity="1"><g transform="translate(228.785492, 204.749987)"><g><path d="M 18.28125 0 L 20.96875 -12.671875 L 9.4375 -12.671875 L 6.75 0 L 0.796875 0 L 7.109375 -29.828125 L 13.0625 -29.828125 L 10.609375 -18.234375 L 22.109375 -18.234375 L 24.59375 -29.828125 L 30.546875 -29.828125 L 24.21875 0 Z M 18.28125 0 "/></g></g></g><g fill="#ffffff" fill-opacity="1"><g transform="translate(258.52342, 204.749987)"><g><path d="M 0.796875 0 L 7.109375 -29.828125 L 26.078125 -29.828125 L 24.9375 -24.46875 L 11.921875 -24.46875 L 10.609375 -18.109375 L 21.578125 -18.109375 L 20.4375 -12.71875 L 9.4375 -12.71875 L 7.90625 -5.5625 L 20.921875 -5.5625 L 19.78125 0 Z M 0.796875 0 "/></g></g></g><g fill="#ffffff" fill-opacity="1"><g transform="translate(282.787846, 204.749987)"><g><path d="M 17.390625 0 L 12.59375 -11.296875 L 9.140625 -11.296875 L 6.75 0 L 0.796875 0 L 7.109375 -29.828125 L 17.515625 -29.828125 C 19.203125 -29.828125 20.648438 -29.703125 21.859375 -29.453125 C 23.066406 -29.210938 24.050781 -28.800781 24.8125 -28.21875 C 25.582031 -27.632812 26.144531 -26.867188 26.5 -25.921875 C 26.863281 -24.972656 27.046875 -23.804688 27.046875 -22.421875 C 27.046875 -21.765625 26.972656 -21.078125 26.828125 -20.359375 C 26.691406 -19.648438 26.484375 -18.9375 26.203125 -18.21875 C 25.921875 -17.507812 25.570312 -16.820312 25.15625 -16.15625 C 24.738281 -15.488281 24.253906 -14.890625 23.703125 -14.359375 C 22.984375 -13.660156 22.1875 -13.109375 21.3125 -12.703125 C 20.4375 -12.296875 19.566406 -12.003906 18.703125 -11.828125 L 24.046875 0 Z M 14.609375 -16.59375 C 15.804688 -16.59375 16.773438 -16.691406 17.515625 -16.890625 C 18.253906 -17.097656 18.847656 -17.425781 19.296875 -17.875 C 19.535156 -18.113281 19.742188 -18.394531 19.921875 -18.71875 C 20.097656 -19.039062 20.25 -19.378906 20.375 -19.734375 C 20.5 -20.085938 20.59375 -20.4375 20.65625 -20.78125 C 20.71875 -21.132812 20.75 -21.460938 20.75 -21.765625 C 20.75 -22.285156 20.6875 -22.71875 20.5625 -23.0625 C 20.4375 -23.414062 20.222656 -23.703125 19.921875 -23.921875 C 19.628906 -24.148438 19.242188 -24.3125 18.765625 -24.40625 C 18.285156 -24.5 17.691406 -24.546875 16.984375 -24.546875 L 11.96875 -24.546875 L 10.234375 -16.59375 Z M 14.609375 -16.59375 "/></g></g></g><g fill="#ffffff" fill-opacity="1"><g transform="translate(309.875209, 204.749987)"><g><path d="M 0.796875 0 L 7.109375 -29.828125 L 26.078125 -29.828125 L 24.9375 -24.46875 L 11.921875 -24.46875 L 10.609375 -18.109375 L 21.578125 -18.109375 L 20.4375 -12.71875 L 9.4375 -12.71875 L 7.90625 -5.5625 L 20.921875 -5.5625 L 19.78125 0 Z M 0.796875 0 "/></g></g></g></svg>