<svg xmlns="http://www.w3.org/2000/svg" xmlns:xlink="http://www.w3.org/1999/xlink" width="500" zoomAndPan="magnify" viewBox="0 0 375 374.999991" height="500" preserveAspectRatio="xMidYMid meet" version="1.0"><defs><g/></defs><g fill="#ffffff" fill-opacity="1"><g transform="translate(37.500002, 343.591288)"><g><path d="M 58.03125 -91.6875 C 60.8125 -85.8125 63.941406 -80.4375 67.421875 -75.5625 C 70.910156 -70.6875 75.207031 -66.425781 80.3125 -62.78125 C 85.414062 -59.144531 91.523438 -56.320312 98.640625 -54.3125 C 105.765625 -52.300781 114.4375 -51.296875 124.65625 -51.296875 C 133.164062 -51.296875 141.285156 -52.222656 149.015625 -54.078125 C 156.753906 -55.941406 163.5625 -58.535156 169.4375 -61.859375 C 175.320312 -65.191406 180.003906 -69.097656 183.484375 -73.578125 C 186.972656 -78.066406 188.71875 -83.019531 188.71875 -88.4375 C 188.71875 -94.164062 188.289062 -99 187.4375 -102.9375 C 186.582031 -106.882812 184.144531 -110.640625 180.125 -114.203125 C 176.101562 -117.765625 169.953125 -121.363281 161.671875 -125 C 153.390625 -128.632812 141.820312 -132.925781 126.96875 -137.875 C 112.882812 -142.519531 100.539062 -147.359375 89.9375 -152.390625 C 79.34375 -157.421875 70.484375 -163.335938 63.359375 -170.140625 C 56.242188 -176.953125 50.867188 -185 47.234375 -194.28125 C 43.597656 -203.570312 41.78125 -214.71875 41.78125 -227.71875 C 41.78125 -240.25 44.601562 -252.550781 50.25 -264.625 C 55.90625 -276.695312 64.222656 -287.410156 75.203125 -296.765625 C 86.191406 -306.128906 99.769531 -313.671875 115.9375 -319.390625 C 132.113281 -325.117188 150.800781 -327.984375 172 -327.984375 C 198.46875 -327.984375 220.867188 -323.222656 239.203125 -313.703125 C 257.535156 -304.191406 272.894531 -289.921875 285.28125 -270.890625 L 227.71875 -231.890625 C 224.625 -237.921875 221.140625 -243.296875 217.265625 -248.015625 C 213.398438 -252.742188 208.875 -256.734375 203.6875 -259.984375 C 198.5 -263.234375 192.539062 -265.707031 185.8125 -267.40625 C 179.082031 -269.101562 171.304688 -269.953125 162.484375 -269.953125 C 154.898438 -269.953125 147.894531 -269.140625 141.46875 -267.515625 C 135.050781 -265.898438 129.484375 -263.539062 124.765625 -260.4375 C 120.046875 -257.34375 116.367188 -253.585938 113.734375 -249.171875 C 111.109375 -244.765625 109.796875 -239.703125 109.796875 -233.984375 C 109.796875 -228.722656 110.878906 -224.195312 113.046875 -220.40625 C 115.210938 -216.613281 118.578125 -213.171875 123.140625 -210.078125 C 127.703125 -206.984375 133.539062 -204.039062 140.65625 -201.25 C 147.78125 -198.46875 156.375 -195.53125 166.4375 -192.4375 C 182.832031 -187.320312 196.796875 -181.707031 208.328125 -175.59375 C 219.859375 -169.488281 229.257812 -162.601562 236.53125 -154.9375 C 243.800781 -147.28125 249.0625 -138.65625 252.3125 -129.0625 C 255.5625 -119.46875 257.1875 -108.632812 257.1875 -96.5625 C 257.1875 -81.238281 253.898438 -67.234375 247.328125 -54.546875 C 240.753906 -41.859375 231.46875 -30.988281 219.46875 -21.9375 C 207.476562 -12.882812 193.007812 -5.84375 176.0625 -0.8125 C 159.125 4.21875 140.363281 6.734375 119.78125 6.734375 C 88.207031 6.734375 62.398438 1.664062 42.359375 -8.46875 C 22.316406 -18.601562 8.195312 -33.5 0 -53.15625 Z M 58.03125 -91.6875 "/></g></g></g></svg>